<mxfile host="Electron" agent="Mozilla/5.0 (Windows NT 10.0; Win64; x64) AppleWebKit/537.36 (KHTML, like Gecko) draw.io/24.7.8 Chrome/128.0.6613.36 Electron/32.0.1 Safari/537.36" version="24.7.8">
  <diagram name="Page-1" id="DKjhRe44bUF9u8TZCXLa">
    <mxGraphModel dx="1434" dy="964" grid="1" gridSize="10" guides="1" tooltips="1" connect="1" arrows="1" fold="1" page="1" pageScale="1" pageWidth="1100" pageHeight="850" math="0" shadow="0">
      <root>
        <mxCell id="0" />
        <mxCell id="1" style="locked=1;" parent="0" />
        <mxCell id="klUU8SDGJ62FQujr6hTt-4" value="" style="shape=image;verticalLabelPosition=bottom;labelBackgroundColor=default;verticalAlign=top;aspect=fixed;imageAspect=0;image=data:image/png,iVBORw0KGgoAAAANSUhEUgAAA2gAAAKYCAYAAAAG89uQAAAAAXNSR0IArs4c6QAAAARnQU1BAACxjwv8YQUAAAAJcEhZcwAADsMAAA7DAcdvqGQAACxQSURBVHhe7d0tdCNXlgBgJ2TMRmzERmzEIhaziI3YKsxhDloNWgWtg3wGeZlmkRLkYT6LlGYT1s3SrJtlWDfrsIT1IK+u9KRxlWRbtqWqkur7zrmnnpS/mdZPvav73n1HAAAAAAAAAAAAAAAAAAAAAAAAAAAAAAAAAAAAAAAAAAAAAAAAAAAAAAAAAAAAAAAAAAAAAAAAAAAAAAAAAAAAAAAAAAAAAAAAAAAAAAAAAAAAAAAAAAAAAAAAAAAAAAAAAAAAAAAAAAAAAAAAAAAAsA2fpCvAva6urm7evXuXHh0d/etf/zr66aef0qO5n3/+eXY9Ozs7+p//+Z+tfL9cXl7e/O///u/Rhw8f0jP/dnJycnR8fJwezbXb7aM//OEP6dFcs9k8+stf/uL7DgCoPBMWqInr6+ubRQL122+/Hb1582Y2DpH8LP7atkwmk6Mvv/xyG98xN+laiG63m0b/1ul0jn7/+9+nR3OtVuvo66+/9h0KAGyVyQXsqfF4fLOoKr1+/fro48ePs3EkXr/++utsXKbLy8ujb7/99lnfMZFUfvXVV+nRfoiq3k8//eS7FQB4EpMIqKiLi4tZ5ejVq1ezx7GccJGEVV1Ul969e7eV75dpwnOTX0pZdefn51tZ4hnLO7///vtZwh1VvNu++OKLNJqLv76liiUAUCI3c6iYKiYksYcr9nbdlk8Q4q9/9dVXhX+n3K4kLvzyyy8rSzYjuS3qz3U4HB797W9/28afxdaWd27yGjYajaNvvvnGfQEASuRGDNWzkz1Xt/dW3d5TZVK+ajQa3eSXib5//z6qgunR3Lq9e/Hn/PLly239eRa6/25T8f6J981ti2TP+wkAnsdNFKpno0n5YpIcVZFF10LdCg/LNNm7mSZ76dH+iPflNMH1PgSAJ3ADhQ3FfqBYJhdt3Z/b/OI+0Rgj9h0tLCoTf/3rX31ea+x2F86w7piDKiVz0/+9W13yGnsyYz/m7WWZOmkCcIjc2GCNmAxHZ8SYAK/btzSdLEqY2Dv5s+zCognNQiztvH0Ew1PEjxgfP37c2uej0+ncPPZ/U37PXXTX/N3vfjcbW4YJQJW5QcFU7Dl6+/bt0T/+8Y+1ByLn9Xq9+Ht9fqitdfv0ItmLpOi7777b6mdjmvDNqtdFWezXjETus88+m41V6wAoipsNtRNd/yIZi1/kn9rVb/rvsNcLCtLv929++OGH9KhaojIXFcOIzz//fPacvaAAPIcbCActlnQtkrHn7s+JphwxGdt2dQB42GJ5Zv4IhfiRpcrnA0biNhgMtnXsAgA14IbBwYkK2YsXL2bLFZ8qljZFMha/iNtrBvvp9jLM3377LbO3Lsb5JZo75nsEgI24YXAQosNbJGWPbSSwEMlYVMhiv4mlSVBvtztm/vOf/1zuS31mtc73CgAbccNgbw2Hw9m+lHxXuodEE4NIyCIZ08kNeI7byVwsp15U5RZLqmM/2n/+539utRIfqwS+/fbb5X8rmposGppoZgIAFCaWK0WzgOjoNn24ccRhv3GG2XQMsPce8x0Y33/xvRmrDGIf3/Q5ACrOr2xUVvwy/eOPP85+iX5MlSx+SZ5OSI7+/Oc/b/WgXIAqmH7HrRxx8BSxkiC+L2Ovrc6TAMBa8QvvdNKw8ivwQ9FqtW4Gg0GMAQ5a/HgVSdp0uLOI7+FerzervMV/b/ocAFAnZ2dnj1662G63Z5OH6RigtuJ7MH6giuWMzWZz5btymxH/jdj/a7kkABygmFRE5Ws63Chi4nF6empiALChIpK3qLbFfyP2CU8fAwD7ZDKZzCYK0+FGEUtsNPgA2L5I3qIaFt/Jj/mxbJOIFQ7xg5rvbwCoqGgLvekEIJIyex4AyrOL5C3+PVZAAEAFRMI1vdwbceP2SytAtcX3dFTGOp3Oyvf4IwIAKNm6G/SsC1k0B5mOAdhTsfcs9qBt2oHXCgkAKF/m5hx7EyxzAThc8R2/WCI5fbiMVHkDAMoUN+q4Sff7/ZtoEpKeBgAAAAAORazKmF5mDaaiIdX8WQAAAAoVe5mnl5WIpZTRiXI6BgAAoAibHAEQFbZoYmKJPQAAwI7dVUW7K6Lb5Pn5eYwBAADYtmjdH8e2PDZZOz4+nu1dcw4nAADAjkSF7LHJWkT8M3EQt2YjAAAAOxDNQjY9RDsfscct9q85XBsAAGDLolFIHKC9aM3/2IjukJZDAlCIOEh6epmtx4+DpefPAsDhWuxd26QbZD4W1TXdIQHYqn6/v/amM70CQK3E3rO4Lz6l2Uj8c37gBODJ4lfDu25AsYRjegWAWovljNHlcTp8VFgKCcCjxJKM6WVtNJvNuAIAOU/Zv2YpJAD3uquTVSRmo9EoxgDAA+Ke+djukIulkNMxAHUXv/pNL2sjVdQAgCeIvWdxflokYNOHG4XW/QA1FTeNtGxxJWIPmhsEAGxPLGWMHz7vuvcuIhK66RWAOonDOaeXtaERCADs3vn5+dp9a+keDUBd3NUIJJZfuCkAQPFi31rcg+35BqiZdWebRdiYDAAAUKC72v86PBMAAKAgkYCt6x4Vzzl7BQAAoCB37TeLLo3TKwBwwOxrA6iQbrebScoWkQ7PBAAOWPoxdhaxaubs7Mz9H6Asdx0+nZ4HAA7fyjwgIn7AddYpQIHSvrJMxK9o9psBQH20Wq2V+cDtiL9+eXkZYwB2Ja0zz0RqEAIA1Exa1nhvWP4IsCPpkOmVsDkYAOot5gjNZnNljpAPyx8BtuSuX8hSF0cAgNnRO6lZ2L1h+SPAM9yVnJ2fn8cVAGCF5Y8AOzAej1e+TCPiF7LpFQDgXpsuf4zKm+WPAA9IDUCWoSEIAPAUmy5/jGTO8keANe74EgUAeJZNlj/GET6pQRkA6w6itucMANimqJQ9tPwxEjUVNaDW1u07a7fbvhgBgJ2IvWcPLX+MRM7RPkBdrXwpTgMAYOf6/f66ecgyJGpAreSbgkT4EgQAiiZRA2ovDo2cXjKR9qIBAJRik0TN8T/AwVn35ZeeAwAo3UOJWvzQLFEDDkJqYZuJtFEXAKBSut3uyrzldqQVQQB7LfPFFu1s40kAgKp6KFHr9XpxBdgvd5w9AgCwFx5K1JzjCuyNwWCw8iXmxH4AYB/dl6jFD9LpnFeASst8eVkKAADss8lkstiDtjbssQcqq9PpZL6w0vlnAAB77/LycrGnfiXS9g6A6kgtaDPhoEcA4NCcnp6uzHkirq+v4wpQDfnGIKmaBgBwkNLSxlnoVg1UytnZ2fIL6lYAABy02J+mGRpQKamcn4lU+gcAAKBI+aWNNskCAACUYN2ZZzbIAgAAlCB/JkjaiwYAAEDR0qbYWbTbbckZAABAmaJ7URzcmB4CAAAAAAAAAAAAAAAAAAAAO3B1dXVzenpqfz8AAECZ0nmyyxgOhxI1AACAMgwGg0yCFqGaBgAAUJ6VJK3X60nSAAAAihbLHI+Pj1eStE6nI0kDAAAoQ6PRkKQBAABUxbokrdVqSdIAAADKkBKyTLTbbUkaAABAGVJClgmNQwAAAEqS9p9lwjlpAAAAJWk2mytJ2sXFhSQNAACgDOta8EvSAAAASjAej1cStIjRaBRXAAAAinR1dbWSoKXKGgAAAEVbl6SdnJxI0gAAAMqQujhm4vLyUpIGAABQhvxB1pY6AgAAlCuTpFnqCAciyuSDwcAHGgBgj6T5WyYsdYQ9d3p6uvxANxoNH2gAgD1iqSMcnsyHOp4AAGCvZOZzkjTYU/1+P/NhbjabPswAAHvm/Pw8M6eLsH0F9lPmg+wkegCA/ZT/4d3WFdgzvV4v8yFWPQMA2HuZ+V08AeyByWSS//CqngEA7LnUZn8ZljnCnuh0OpkPr+oZAMD+Sy32zfFgn6ieAQActMw87+LiwjwPqkz1DADgcOWbhWi5DxWmegYAUAuZ+V5qww9UjeoZAMDhy1fRWq2WOR9Uzbrq2fX1tQ8rAMBhys/9gCrJV8/SYwAADlA6qHoZtrVAhayrnqXnAAA4QPlljqenp+Z+UBWqZwAA9TIej83/oIpUzwAAais/DwTKpnoGAFBP6Qy02wGUSfUMAKC+Tk5OMvNA56FByVTPAADqazAYZOaCqXEIUAbVMwCAekut9ZfRbrfNBaEsqmcAAExl5oTxBFAw1TMAAJL8vBAomuoZAACh2+0u54SNRsOcEIqWX2scoXoGAFBfp6enN71ez3wQytBsNjPJmeoZAABACVTPAAAAKkL1DAAAoAJUzwAAACpC9QwAAKAC1lXPpgEAAEDR8tWzfr8vQQMAACia6hkAAEBFqJ4BAABUgOoZAABARaieAQAAVIDqGQAAQEUcHx9nkjPVMwAAgBIMh8NMcpYCAACAoqmeAQAAVIDqGQAAQEWongEA8FTxY3+32725vr42h4TnylfPUrIGAAAPOj8/N4+EbcpXz1LCBgAAD4rK2fSyjHRsE+zEp+l6sCIZ+/jxY3o0S9aO/va3v32SHgIAwL0ajUYazf3yyy9pBNt38Anad999l0Zzg8EgjQAA4GGtViuN5t69e5dGsH0HnaBNJhPVMwAAnuUPf/hDGs1J0OB5luuF0wZPAADYWOrcuIxWq2VOCU8VmzhjY6fkDACAZ8gkafEE7ILlfgAA8LB8UmYezU4cfJMQAACAfSFBAwCAB+Q7OaZ9abB1EjQAAHhAs9lMozmdHNkVCRoAADwgX0F7//59GsF2SdAAAOAB+QTtw4cPaQTbJUEDAIAHOKyaokjQAADgASpoFMX5DQAAsBlnobFzKmgAAAAVIUEDAIAN5FvtOwuNXZCgAQDABjqdThrNvX37No1geyRoAACwgXa7nUZzP//8cxrB9kjQAABgA3/605/SaE6CBjn9fj/W/d40m03rfwEAKMJs/nkrgFuWH47T01MfEAAAdioVBpaRCgbAYDDIfDh6vZ4PBwAAOzUajTJz0BTA8fFx5oNxcXHhwwEAwM7l56GXl5fmodRbSsaWkT4kAACwc/mVXN1u11yUesuv/R0Ohz4UAAAUYjKZZOaiigXUmnW/AACULb/M8erqypyUejo5Ocl8GHTOAQCgaGlZ4zI6nY45KbWV+TDEEwAAUILMvDQtfYT6SB1yluGAagAAypKqZsuwsovayS9vTB10AACgcOPxODM3TQG14gMAAEBl5LuLq6JRG/nujZY3AgBQtvPz88wcNQUcvrOzs8wbPz0GAIBS5Vvup6QNDlt+E2Za8wsAAKVKfRGWYaUXtZD/ZSKeAwCAisjMVdP2HDhomTd9PAEAAFWQmoMso91um69yuPItTJ3UDgBABWXmrA6u5ik+TddKe/v2bRrNTRO0NAIAgGpotVppNPf999+nEWxuLxK0N2/epNHcZ599lkYAAFAN//Vf/5VGcx8/fkwjODAahAAAsA9u70W7uroyb+XwXF9fL9/kEY1GwxsdAAA4SJVf4vjixYs0mjs5OUkjAAAACtVqtTIVNKViAACAkuQTtHgOAADgEO1FF0cAAIA6kKABAABUhAQNAACgIiRoAAAAFSFBAwAAqAgJGgAAQEVI0AAAACpCggYAAFAREjQAAICKkKABAEBJut3uTbvdvkkPofparVa8YW8HAADsvV6vZ57LChU0AACogFSYoOYqn6A1m800AgCAw/Ef//EfaTT37t27o8FgIEmj2q6vr5dl35OTE29YAAAORuxBm17yAdU3mUy8WQEAODjHx8eZBM1SRwAAgJKMx+NMghZhqSMAAEBJ1i11HI1GkjQAAIAy5Jc6RqR+DAAAABTpdnO8RaSkDQAAgKJdXl6uJGmNRkOSBgAAUIbhcLiSpDWbTUkaAABAGU5PT1eSNO33AQAAStLr9VaStE6nI0kDAAAoQ0rIMpESNwAAAIqWljZm4uzsTJIGAABQhtTJMROpmQiU6+Li4mYymXgzAgBQK+sOso658fQK5bj9y4FT1QEAqJt1Sdp4PDYvpjTLN6KzIAAAqJu0kmwlrq6u4gqFy7wRLXUEAKBuUjKWiVRZg2L1+/3MG7Hb7XojAgBQO2nvWSYkaRQu/2uBNyEAAHV1fn6emRtHpJ4NUKjMm9AyRwAA6iqdh5YJvRooVP40dYf0AQBQZ/ltQBEqaRQmv97WLwQAANRdr9fLzJEjJGkUKf8GBACAWksN9DIhSaMQqWq2DCeoAwDA+kqaxnrsXH4z5MnJiTcdAABM3ZWkaa7HztxxgjoAADC1LkmLSMdWwfalUq03GwAArHF6epqZLy/CvJmdyG+CTO1FAQCAZN05aSlgu0ajUeZNpkMNAACsWpekOUuYXcm/2QAAgJx8kpaKHbBdrVYr80YbDofeaAAAsEbsPYvmIZeXl+bM7EZKyJaREjYAAIC99Em67rN8UnYI/58AAIAa+jRd91aj0UijOetpAQCAfbX3CVqv10ujuRcvXqQRAAAAhUoH7S0jHWANAABASTJJ2vX1tSQNAADYO3u/xDGcnJyk0dyPP/6YRgAAAPvjIBK0P//5z2k0949//CONAAAA9schtaTPL2vUbh8AANgrB1FBC61WK43mLi4u7EMDAAD2ysEkaN1uN43mtNsHAAAoyWQyWXZxvBUAAMAzpdVps+j3++bZbCadgbaMdEYaAADwDM1mMzPP7vV65tk8LL1RliG7BwCA58vPsyMkaTxoNBpl3jSpogYAADxTo9HIzLUjJGlsIv/GAQAAtkCSxqO12+38mwYAANgSSRpPMXujpM2MAADAFknSeLTxeOwNAgAAOyJJAwAAqBBJGgAAQIWsS9I6nY4kDQAAoAySNAAAgAqRpAEAAFRIq9WSpAEAAFSFJA0AAKBCJGkAAAAVIkkDAACoEEkaAABAhUjSAAAAKkSSxop2uz17IwyHQ28EAAAomCSNpX6/n38zAAAABZOkMdPtdjNvgouLC28CAAAogSSNo7Ss0RsAAAAqQJJWc5PJZOUNMA0AAKAkkrSaOz4+zrz4KWkDAABKIkmrsfw+NN0cAQCgfJK0mkqNQZaR2u4DAAAlk6TVV/6FBwAAKmBdkpZWwXGo8vvQrq+vveAAAFAR65I0W5MOWP7Aai82AABUy7okbTwem7cfovTCLqPZbHqhAQCgYvIr38zbD1vmxY4nAACA6khbkczb66DRaGReaOehAQBA9VxeXt4sKmm2Jh0w+9AAAICq+jRda+Ozzz5Lo7k3b96kEQAAAGVYVtBS2RQAAKB0n6Rr3eSTsrr+OQAAABVSuyWOodVqpREAAEB11DJBOz4+TqM5B98BAABVoII29f79+zQCAAAoTy0TtHa7nUZz7969SyMAAIDy1DJB++Mf/5hGcxI0AACgCixxnJKgAQAAVVDn9vJa7QMAAJVSywoaAABAFdU2Qcu32gcAAPbfxcXFTUR6yL5ot9vxoi3DWWgAALDf+v3+cn7f6XT2cn5f2wpavtW+s9AAAGC/vXnzJo3m49FotHdJWm0TNJ0cAQDgsDSbzTSa+/7779Nof9Q2QXMWGgAAHJb//u//TqO5n3/+eS+raHW2XKPaarW8cAAAsOfS3rNlNBoN8/w9snzhJGgAAHAwlvP8iMFgYK6/J5YvmgQNAAAOw+1ujreCqms2m8sX7PT01IsGAAAH4vj4eDnXj1BF2wOTyWR2PsLZ2ZkXCwAADsjl5WUmQUsJGwAAAGXIV9GGw6EkDQAAoAwpIVuGjo4AAADlyiRpqmgAAAAlyXd0tBcNAACgXJkkTRUNAACgJKnF/jJU0QAAAEqU7+iYlj4CAABQtHxHxxQAAACUodlsZhK0i4sLSRoAAEAZzs/PMwlau92WoAEAAJQok6SNx2NJGgAAQBk6nU4mQUvLHqmKWHfaarVuzs7OvDAAAHDgJpNJJkGLUEWrluULY5MgAAAcvnwVrdfryQOqICVky+h2u14YAAA4cNfX15k8oNFoVCYP+DRdAQAAauGrr776JA1nfv311zQqnwQNAAConWazmUZzqapWOgkaAABQO71eL43m/u///i+NyiVBAwAAaueLL75Io7mXL1+mUbkkaAAAQO18/fXXldyHJkEDAABqqdVqpdFcFY7dkqABAAC11O/302ju1atXaVQeCRoAAFBL+X1ob968SaPySNAAAIBa+vLLLyu3D02CBgAAUBESNAAAgIqQoAEAAFSEBA0AAKitRqORRnNXV1elttqXoAEAALXV7XbTaK7sVvsSNAAAoLbyrfbfvXuXRuWQoAEAALX1zTfffNJsNtOjo6N2u51G5ZCgAQAAtfbhw4dPhsPh0fn5+dF3332XORuNAl1cXMQGwGV0u91SNwQCAAD1poIGAABQERI0AACAipCgAQAAVIQEDQAAoCIkaAAAABUhQQMAAKgICRoAAEBFSNAAAAAqQoIGAABQERI0AACAipCgAQAAVIQEDQAAoCIkaAAAABVR6wSt2Wym0dzx8XEaAQAAULhpUnYzvcxiMpnEFQAAqJHBYDDLB5rNpnygCi4uLrwQAABQX7MELaLf78sNAAAAypCKNcvodrulJmiahAAAALX1+vXrNJrrdDppBAAAQKHSvrNllN2X4pN0BQAAqKN8QlZqjmSJIwAAQEVI0AAAACpCggYAAFAREjQAAICKkKABAABUhAQNAACopXRI9VIVzkCToAEAALX06tWrNJrrdrtpRGlGo9HNNFO+GQwGpR5IBwAAFOv4+Hh2OPUiyj6kmrnlC3J+fu4FAQCA+ljmAiko03g8zrwgUUmL5wEAgMM2HA4rmQvUeg9as9lMo7kPHz6kEQAAcMh++OGHNJrr9XppVK5P0rXO8pmyPxMAADh8lcwDdHEEAABq5erqKpOcNRqNNCqfBA0AAKiVKrfXr32Clt+HBgAAHLaXL1+m0dwXX3yRRpQudWtZRr7cCQAAHJxMDhBPVIUKWq6C9u7duzQCAAAOzWg0yiRkVVtRJ0GzxBEAAGojv/+s3++nUTVoEgIAANTGmzdv0mju888/T6NqkKABAAC1kd/S9PXXX1fqHGQJGgAAUAuTySSz/6xK558tSNAAAIBaeP36dRrNnZycpFF1SNAAAIBa+Omnn9Jormr7z4IEDQAAqIV8gtbpdNKoOiRoAADAwYv9Zx8/fkyP5r788stKNQgJErSct2/fphEAAHAoXrx4kUZzVayeMXV1dRWdXJbRaDQynV0AAID912w2M/P+i4uLSs77K1fSK0n+xfHnAgAAh2Uv5vyWOE61Wq00mqtqNg0AADxefn5fxfPPFiRoU71eL43mXr16lUYAAMC++/HHH9Nort/vpxGVlE4UX8bx8bEKGgAAHI7MfP/6+tp8fw9kXrR4AgAA2G9peaO5/r7Jd3WRVQMAwP5LXdqXcXZ2Vul5vj1oSb5RyLt379IIAADYV7/++msazf3973+vdMd2CVqST9Dev3+fRgAAwL4aDoez6/Hx8dF4PJ6N2QP5tam9Xq/SpU8AAODwqKAl7XY7jeYscQQAACjXsoKm1T4AAFC0Sm+QK0E+KfPnAwAAFMYSx1vyjUJGo5EqGgAAUBgJ2i3dbjeN5l69epVGAAAAFOrq6mq5By0iHWoHAABQCHusVuWTMn9GAABAISxxzLEPDQAAKIsELefk5CSN5t6/f59GAAAAuyVBy/n888/TaO73v/99GgEAAFC4Vqs1axKSrgAAAAAAAAAAAAAAAACPMR6Pbzqdzs1gMLBFCQAAoGSzHhIRl5eXkjQAAIAyXFxcLJOziG63u9cJmjb7AADA3nrx4kUazTUajTQCAACgMJPJJFM9i7i+vt7rChoAAMBeisYg08synGMMAABQgnXVs/QcAAAARWq325nkLFXTAAAAKNJoNMokZxGqZwAAACVoNpuZ5Ez1DAAAoATrqmfTAAAAoGj56lm/35egAQAAFO3i4iKTnKUAAACgaMfHx5nkTPWM2WF4jUbDGwEAAAo0HA4zyVkK6iwlZrNI2TsAAFCAfPXs7OzMfLzu8hsSUxYPAADsUErGlqFYwky+rOqNAQAAu6dQwp3ypVVvDgAA2LnMHDyegBlVNAAAKE406ZtelnFycmL+TZYqGgAA7N5kMsnMuyNGo5G5N1mqaAAAsHv5vWfpMazKV9HG47E3CwAAbEmqlGXi6urKnJv10qnly5DNAwDA9tw+gzgi7UWDe2XeNNfX1940AADwTPktRSngft1uN/OmkdUDAMDz5bcTpdVrcL91XWWmAQAAPFF+K1EK2Ez+XAbZPQAAPEtmfj0YDMyv2dy67jLTAAAAHilf/HCcFU+SP5/BwdUAAPA467YPXVxcmFfzeOmNswyZPgAAPE673c7MqR1jxbPkO82oogEAwGbWbRtKz8HT5M9qUEUDAIDN5LcMOb6KrVBFAwCAx1l3KHXajwbPo4oGAACPky9y9Ho9c2i2J/8Gc24DAACsd3Jykpk7p4DtWVeinQYAAHDLunnz6empuTPbl6+i2eQIAABZjUYjM2dutVrmzOzG5eVl5s0WoU0oAAD8W7/fX86VU7IGu5M/aM+bDgAAss7Pz3U+p1CZJM2aWgAAgJKcnZ1lErQUAAAAlCG/+TEtfQQAAKBo4/E4k6BFxFrb6RUAAICiOYAPAACgQvJno1nqCAAAUJJ1Z6NZ6ggAAFASSx0BAAAqxFJHAACAirDUEQAAoEIsdQQAAKiQ/FLH0WgkSQMAgJr7NF0p2HA4TKO5VquVRgAAABSu0+nMqme9Xk/1DACAgxD9FaIR3tnZmTkuAABAWQaDwawAsYirqytJGgAAQEkyCdp4PJagAQAAFK3VamWSs9QUDwAAgCLllzZGqJ4BAACUI5OcdbtdyRkAAEDRms1mJjmztBEAAKAEqVKWCUsbAQAACjYajVaSM+f7AgAAlCAtZVxGWuoIAABAkfIt9VMAAABQpLOzs5XkbDgcStAAAACKdHV1tZKcnZycSM6op/hAnJ6e3qQPBgAAFCq/70xLfepu+WFIpWUAAChEqpRlQuGA2rq8vFz5QAwGAx8IAAB2Lu0xy0Ss7Jpeob7yJeWIi4sLHwwAAHZmMpmszEFTF0dgXZKWqmsAALB1jUYjM/e07wxuWdc5J8L6XwAAtq3dbq/MO0ejkXkn3HZXknZ9fR1XAAB4tnXnnWlUB3dY1zREuRkAgG1YVxBI1TTgLqlBSCbSGmEAAHiyfN8DhQDY0LqWp7rqAADwVOv2nel3AI/Q6/VWPkTpIEEAANjYunmlfWfwBJ1OZ+XD1O/3fZgAANjIuqYgfvSHZ0hLGzNxfn7uQwUAwL30NoAdyR8kGDEej324AABYK80VM6EpCGxRvutOCgAAyJhMJuvmjRHAtqQDqzOhRA0AQN66H/Z1bIQdcJA1AAD3Wbc1Ju1FA3ZhXSeeSNL8KgIAUG/rmssNBgNzRNi1dWdZREjSAADqKbXOz4TjmaBAp6enKx/CCEkaAEC9pCpZJrrdrjkhFG3dcscISRoAQK1k5oJpqSNQhruSNJtBAQAO3/n5eWYOqIEcVMC6U+IjJGkAALWwnP+lo5mAst2VpA2Hw7gCAHDA/DAPFTQajTLJ2SJSQxEAAACKlBqErIROPgAAACW4vLxcSdAiOp1OXAEAAChSVNJSF59MNJtNSRoAAEAZGo3GSpKWngMAAKBo6bDCTER1zYHWAAAAJUj7z9YFAAAARUudHDNxdnYmSQMAgB36NF0h4+XLl5+cnp6mR3N/+tOf0ggAAIDCjcfjm16vd5Pa8QMAAAAAAPHjeTR1i07bMU5PAwAAUKThcLjsDRDhOCQAAIAS9Pv9THIW0Ww2JWgAAABFuusIJEscAQAACpSqZJk4Pj6+ubq6kpwBAAAUIapjaY9ZJuw7AwAAKNC6/WYR7XY7rgAAABQhWuhPLyvR7XbjCgAAwK5dXl6uJGWLGAwGcQV4vlg/fX197UsFAOAOvV4vk5AtIvabaQYCbM3Z2dnyC8Y5HQAAq9K+spU4OTmJK8D2RAvY6SUTo9HIlw0AUHuxpHHdXCni/Pw8rgDbdXp6uvKFE5E6EwEA1NJ9SxqnV4DdSR2HViJ1KAIAqI3YT7bubLMISxqBwlxcXKx8CUVEWT91LAIAOGh3Vc0iLGkESuEXIwCgbu7ba6aJGlC6lIythDayAMChuWveE5EqagDlS2X8teHLCgDYd3c1SouIqtlkMokxQLWksv5KKPcDAPsofoS+azljxGAwiCtAdaWW+2sjHXQNAFBp4/F48QPz2kiHUQPsh/tazvpCAwCqajQa3ZuYxfwmdbMG2D93nZkWof0sAFAVDyVmEcPhMK4A++2+VrSdTieuAACl2CQxS9s3AA7LXW1pI3lTTQMAinR9ff1gYuZcV+Dg3deO3940AKBAK3ORRcQKH23zgVpJydjaUE0DAHYpNflYidg7LzEDaiudG7I2VNMAgF263W06NTUDIKimAQAAVIi9aQAAABVzXzXt7OwsrgAAABTlvnPTUjtcAAAAinTXuWkRqmkAAAAFi2ra7S5Lt8MB1wAAACXo9XorCdoiUgIHAByoOJpn8YNtOsMMgLJdXV3dWU3r9/txBQAORNz379nuAEBVDIfDlS/q09NTX9YAcADiPn/XD7K3AoCqiUYh0Za/0+n4ogaAPXZ9fX1z33aG2xGVtekVAACAbYpmX+kInXsj/h6NwQAAALYsmnzECpjp8MGIqlpU16ZjAAAAtuExSVnsP4uujdMxAAAA2xDNPlqt1koCdldEx0b7ywAAALbksUlZ/L2pOzMAAADPJSkDYKvG4/FNt9t1swCADcR9s9/vb3JW2TIkZQA8xvIGcnx8fHN5eekGAgDJZDKZNe14TJUsIpqCRHOQ6RgANpM2I69EugkBQC1FYhVNO6bDR4WkDIBnu6/tb5y/Mr0CwEF7yrLFRcR91OoTALYqnbeyNmLZo18DAThUj03K4u8/PT29iaRu+hgAdue+5RzNZvNmNBrFGAAOQlop8mDE/VGVDIBSxL60SMamw7UhUQPgUEQlbHpZiVi2GKtLokHI9DEAlC+1A74zJGoAHIKoosVxM5YtArAX4qY1vdwZsRbfHjUAAICCxBKPTqezkpzdDokaAABAwTapqJ2fn8cYAJ4t7im3fyRMDa0AgNvivJjp5c6I9vxpHxsAbGxxJlncR6YP18b19XVcAYA8iRoAzxHL6KNjYqvVWrmH3BMAwH3Ozs7W3UAzkdoZA1BzcabYfWdv3hXxo58OwgDwCJskarGXIM5bm44BqIH4zo8f6e47Z/OuiDPJrMQAgGeKm+l9+wci4kat8yPAYYr7wEMdgNdFNJuKZM4PeQCwA5skahGp8gbAnopliw91+r0rYrlj/PPTMQBQhNgzsMkG8LhJ684FUH2RUPV6vY1+hMtH3A+iMUg0CJk+BgDKEjfjTX5hjZu3X1MBqiN+aIvOvbEEcfrwURFJXPyzGnwAQIXFssaHfnlNVTcAChbnkcVesKckZBGx/0xzDwDYQ1Epu6+zl0YiALv3nE6LEdFtMZYtWqYOAAciburrzsWxJAZgtzY5IiUfscIh/jndFgGgBuKmH3vVLI8B2L1NGn1EZU1CBgAAsGPrVi9EQhZLHmMv2vQxAAAARYn9vpGQWVYOAACwodivG804oinH9OEs0vElAAAA7NK6hGxdOPQZANgLt7uTxXk+MdGZ/QWACopEKxokPZSQrQkAgL2wbiIz2wAvWQPKtkjI4mDn6cNHR3RgdPYYALA34qye6eXekKwBRdlGQtbr9W7ikP/pYwCA/dPv91cmOXeFZA3YtvPz87UH8W8a0QQkuixOxwAAhyPaRz/mV2vJGvAUEjIAgEeSrAHbEslUanX/pIhkLpK66RgAgEjWHtMxbZGsaWsN9SQhAwAoSEy8Htve+vT09GY8HscYOFASMgCAkj0lWYu/X3UNDsfV1dXK5/yhiOXT0anR9wAAwI7EZGuTlv35iHbYsYRyOgb20O3D7u8KCRkAQIliqdJTzjCKvWsx2XOoLOyPlHRlYlEp91kGAKiY2HsW56zF4bHTh48KbbRhf8TB0BIyAIA989jqmiVRsH3xw0lUuGKJcSRW6WkAAOosmgvEksZY2jh9uDb8Ig/Ps0jG7jsYWrUaAIAV8Uv+7UlkatsNbGiTZGxdpEYfAACwfVF1i6Vbcf5aagEOB+epyVg+Go1GXAEAYGdWJqGLNt/TMeydbSVji4jPQ1TNHHEBAMBOpT1r90Z0lIwKW0x6p4+hUiRjAPXySboCHKw4g+nnn39OjzYznQzHP3f02WefHX3zzTe+K9m5WH777t27o9evXx/9+uuvRz/99FP6K083TcZm4X0MAEClRLXgqeevLaLVas3+HTrc8VxxvEQ0vbmvY+ljQ2UMAIC99djz1+6KaKgQE+3495kYs4nUhONZIRkDOFyWOwC1F0vLXr16NVtS9tilkPeJZZLTyfjR559/ftRsNo/+8pe/+M6tuTho/csvv0yPNmOZIkC9+KIHWCMaM7x9+3aWsL18+TI9+3ytVuvo3bt3vnv3RCRUb968SY+Ojv76178++7WLZY0fPnxIj/4tkvlIxGLv4x//+Mejb7/91vsEoIZ8+QNsKDpCRsIW1ba4rptkb+Ls7Ozo73//u+/fki2acvzrX/9aNuSI68ePH2fjdY6Pj+OvP/u1W+xjVFkFIM9NAeCZYrL9z3/+cza5jwn/QwaDwdF33333pO/fOGw7nxhG5SWWv4W6T/gvLy9vFgnW7cQrnluMn2uaqB999dVX7p8A7IQbDMCOROL222+/HcUSuUjcIrHq9XpHP/zww5O+e6MD5X3VnfvE0rlI5ELsjfvd7343G4d4vip7m24nWOGXX37J7AuMP8dNkuBd2VYFDQAA2H+ZTn5ViehiOb1uw8q/u+yI/WLx/y8iksfpcwCwU34FBNgTTzlwuyixtPLDhw9PvqdEu/hvvvkmPSpGNOOI/923l4huowkIADyHGxHAHlk0tsh7/fr1srnFNrtObmpLS/+eVaGKpZvxvyPcTrpCdM/8+uuv3fMAqDw3K4AauN0uPr+vK0Ry95wmGpeXl1tpC7/obrhOlfbKAQAAAAAAAAAAAAAAAAAAAAAAAAAAAAAAAAAAAAAAAAAAAAAAAAAAAAAAAAAAAAAAAAAAAAAAAAAAAAAAAAAAAAAAAAAAAAAAAAAAAAAAAAAAAAAAAAAAAAAAAAAAAAAAAAAAAAAAAAAAAAAAAADrHB39PwNr6pjl/rcnAAAAAElFTkSuQmCC;imageBackground=default;" parent="1" vertex="1">
          <mxGeometry x="80" y="80" width="870" height="660" as="geometry" />
        </mxCell>
        <mxCell id="3MaQ9lW96g9JMEUkwHcK-1" value="Database" style="shape=datastore;whiteSpace=wrap;html=1;" vertex="1" parent="1">
          <mxGeometry x="430" y="370" width="90" height="70" as="geometry" />
        </mxCell>
        <mxCell id="gYz3pa-wU1wfD8xuSLPR-7" value="Foreground" parent="0" />
        <mxCell id="gYz3pa-wU1wfD8xuSLPR-8" value="Enter Shipment" style="rounded=0;whiteSpace=wrap;html=1;" parent="gYz3pa-wU1wfD8xuSLPR-7" vertex="1">
          <mxGeometry x="790" y="55.25" width="120" height="60" as="geometry" />
        </mxCell>
        <mxCell id="gYz3pa-wU1wfD8xuSLPR-28" value="View/Track Shipment" style="rounded=0;whiteSpace=wrap;html=1;" parent="gYz3pa-wU1wfD8xuSLPR-7" vertex="1">
          <mxGeometry x="880" y="630" width="120" height="60" as="geometry" />
        </mxCell>
        <mxCell id="gYz3pa-wU1wfD8xuSLPR-29" value="Update/Receive Shipment" style="rounded=0;whiteSpace=wrap;html=1;" parent="gYz3pa-wU1wfD8xuSLPR-7" vertex="1">
          <mxGeometry x="190" y="770" width="120" height="60" as="geometry" />
        </mxCell>
        <mxCell id="gYz3pa-wU1wfD8xuSLPR-31" value="" style="shape=flexArrow;endArrow=classic;startArrow=classic;html=1;rounded=0;" parent="gYz3pa-wU1wfD8xuSLPR-7" edge="1">
          <mxGeometry width="100" height="100" relative="1" as="geometry">
            <mxPoint x="910" y="820" as="sourcePoint" />
            <mxPoint x="1010" y="820" as="targetPoint" />
          </mxGeometry>
        </mxCell>
        <mxCell id="gYz3pa-wU1wfD8xuSLPR-32" value="" style="shape=flexArrow;endArrow=classic;html=1;rounded=0;fillColor=default;" parent="gYz3pa-wU1wfD8xuSLPR-7" edge="1">
          <mxGeometry width="50" height="50" relative="1" as="geometry">
            <mxPoint x="550" y="230" as="sourcePoint" />
            <mxPoint x="500" y="350" as="targetPoint" />
          </mxGeometry>
        </mxCell>
        <mxCell id="gYz3pa-wU1wfD8xuSLPR-33" value="Enter Purchase" style="rounded=0;whiteSpace=wrap;html=1;" parent="gYz3pa-wU1wfD8xuSLPR-7" vertex="1">
          <mxGeometry x="30" y="40" width="80" height="60" as="geometry" />
        </mxCell>
        <mxCell id="gYz3pa-wU1wfD8xuSLPR-34" value="View Purchasing Agents" style="ellipse;whiteSpace=wrap;html=1;" parent="gYz3pa-wU1wfD8xuSLPR-7" vertex="1">
          <mxGeometry x="140" y="280" width="100" height="70" as="geometry" />
        </mxCell>
        <mxCell id="gYz3pa-wU1wfD8xuSLPR-35" value="View Stores" style="ellipse;whiteSpace=wrap;html=1;" parent="gYz3pa-wU1wfD8xuSLPR-7" vertex="1">
          <mxGeometry x="210" y="220" width="100" height="70" as="geometry" />
        </mxCell>
        <mxCell id="gYz3pa-wU1wfD8xuSLPR-40" value="View Items" style="ellipse;whiteSpace=wrap;html=1;" parent="gYz3pa-wU1wfD8xuSLPR-7" vertex="1">
          <mxGeometry x="278" y="158.75" width="100" height="70" as="geometry" />
        </mxCell>
        <mxCell id="gYz3pa-wU1wfD8xuSLPR-42" value="Create Purchase" style="ellipse;whiteSpace=wrap;html=1;" parent="gYz3pa-wU1wfD8xuSLPR-7" vertex="1">
          <mxGeometry x="378" y="131.25" width="100" height="70" as="geometry" />
        </mxCell>
        <mxCell id="gYz3pa-wU1wfD8xuSLPR-46" value="Create Shipment" style="ellipse;whiteSpace=wrap;html=1;" parent="gYz3pa-wU1wfD8xuSLPR-7" vertex="1">
          <mxGeometry x="530" y="150" width="100" height="70" as="geometry" />
        </mxCell>
        <mxCell id="gYz3pa-wU1wfD8xuSLPR-47" value="Updated Purchased Item" style="ellipse;whiteSpace=wrap;html=1;" parent="gYz3pa-wU1wfD8xuSLPR-7" vertex="1">
          <mxGeometry x="620" y="190" width="100" height="70" as="geometry" />
        </mxCell>
        <mxCell id="gYz3pa-wU1wfD8xuSLPR-48" value="View Purchased Items" style="ellipse;whiteSpace=wrap;html=1;" parent="gYz3pa-wU1wfD8xuSLPR-7" vertex="1">
          <mxGeometry x="680" y="252.5" width="100" height="70" as="geometry" />
        </mxCell>
        <mxCell id="gYz3pa-wU1wfD8xuSLPR-49" value="" style="shape=flexArrow;endArrow=classic;html=1;rounded=0;entryX=0.678;entryY=0.136;entryDx=0;entryDy=0;entryPerimeter=0;fillColor=default;" parent="gYz3pa-wU1wfD8xuSLPR-7" edge="1">
          <mxGeometry width="50" height="50" relative="1" as="geometry">
            <mxPoint x="760" y="100" as="sourcePoint" />
            <mxPoint x="620" y="160" as="targetPoint" />
          </mxGeometry>
        </mxCell>
        <mxCell id="gYz3pa-wU1wfD8xuSLPR-50" value="" style="shape=flexArrow;endArrow=classic;html=1;rounded=0;fillColor=default;exitX=0.862;exitY=0.091;exitDx=0;exitDy=0;exitPerimeter=0;" parent="gYz3pa-wU1wfD8xuSLPR-7" edge="1">
          <mxGeometry width="50" height="50" relative="1" as="geometry">
            <mxPoint x="780" y="130" as="sourcePoint" />
            <mxPoint x="710" y="190" as="targetPoint" />
          </mxGeometry>
        </mxCell>
        <mxCell id="gYz3pa-wU1wfD8xuSLPR-51" value="" style="shape=flexArrow;endArrow=classic;html=1;rounded=0;fillColor=default;" parent="gYz3pa-wU1wfD8xuSLPR-7" edge="1">
          <mxGeometry width="50" height="50" relative="1" as="geometry">
            <mxPoint x="760" y="251.25" as="sourcePoint" />
            <mxPoint x="810" y="140" as="targetPoint" />
          </mxGeometry>
        </mxCell>
        <mxCell id="3MaQ9lW96g9JMEUkwHcK-3" value="" style="shape=flexArrow;endArrow=classic;html=1;rounded=0;fillColor=default;" edge="1" parent="gYz3pa-wU1wfD8xuSLPR-7">
          <mxGeometry width="50" height="50" relative="1" as="geometry">
            <mxPoint x="440" y="210" as="sourcePoint" />
            <mxPoint x="470" y="350" as="targetPoint" />
          </mxGeometry>
        </mxCell>
        <mxCell id="3MaQ9lW96g9JMEUkwHcK-4" value="" style="shape=flexArrow;endArrow=classic;html=1;rounded=0;fillColor=default;" edge="1" parent="gYz3pa-wU1wfD8xuSLPR-7">
          <mxGeometry width="50" height="50" relative="1" as="geometry">
            <mxPoint x="440" y="360" as="sourcePoint" />
            <mxPoint x="360" y="230" as="targetPoint" />
          </mxGeometry>
        </mxCell>
        <mxCell id="3MaQ9lW96g9JMEUkwHcK-5" value="" style="shape=flexArrow;endArrow=classic;html=1;rounded=0;fillColor=default;" edge="1" parent="gYz3pa-wU1wfD8xuSLPR-7">
          <mxGeometry width="50" height="50" relative="1" as="geometry">
            <mxPoint x="420" y="380" as="sourcePoint" />
            <mxPoint x="310" y="270" as="targetPoint" />
          </mxGeometry>
        </mxCell>
        <mxCell id="3MaQ9lW96g9JMEUkwHcK-6" value="" style="shape=flexArrow;endArrow=classic;html=1;rounded=0;fillColor=default;entryX=1;entryY=0.714;entryDx=0;entryDy=0;entryPerimeter=0;" edge="1" parent="gYz3pa-wU1wfD8xuSLPR-7" target="gYz3pa-wU1wfD8xuSLPR-34">
          <mxGeometry width="50" height="50" relative="1" as="geometry">
            <mxPoint x="400" y="390" as="sourcePoint" />
            <mxPoint x="320" y="280" as="targetPoint" />
          </mxGeometry>
        </mxCell>
        <mxCell id="3MaQ9lW96g9JMEUkwHcK-7" value="" style="shape=flexArrow;endArrow=classic;html=1;rounded=0;fillColor=default;" edge="1" parent="gYz3pa-wU1wfD8xuSLPR-7">
          <mxGeometry width="50" height="50" relative="1" as="geometry">
            <mxPoint x="260" y="750" as="sourcePoint" />
            <mxPoint x="320" y="590" as="targetPoint" />
          </mxGeometry>
        </mxCell>
        <mxCell id="3MaQ9lW96g9JMEUkwHcK-9" value="" style="shape=flexArrow;endArrow=classic;html=1;rounded=0;fillColor=default;" edge="1" parent="gYz3pa-wU1wfD8xuSLPR-7">
          <mxGeometry width="50" height="50" relative="1" as="geometry">
            <mxPoint x="210" y="220" as="sourcePoint" />
            <mxPoint x="110" y="120" as="targetPoint" />
          </mxGeometry>
        </mxCell>
        <mxCell id="3MaQ9lW96g9JMEUkwHcK-10" value="" style="shape=flexArrow;endArrow=classic;html=1;rounded=0;fillColor=default;" edge="1" parent="gYz3pa-wU1wfD8xuSLPR-7">
          <mxGeometry width="50" height="50" relative="1" as="geometry">
            <mxPoint x="260" y="170" as="sourcePoint" />
            <mxPoint x="130" y="100" as="targetPoint" />
          </mxGeometry>
        </mxCell>
        <mxCell id="3MaQ9lW96g9JMEUkwHcK-11" value="" style="shape=flexArrow;endArrow=classic;html=1;rounded=0;fillColor=default;" edge="1" parent="gYz3pa-wU1wfD8xuSLPR-7">
          <mxGeometry width="50" height="50" relative="1" as="geometry">
            <mxPoint x="140" y="70" as="sourcePoint" />
            <mxPoint x="370" y="140" as="targetPoint" />
          </mxGeometry>
        </mxCell>
        <mxCell id="3MaQ9lW96g9JMEUkwHcK-12" value="" style="shape=flexArrow;endArrow=classic;html=1;rounded=0;fillColor=default;" edge="1" parent="gYz3pa-wU1wfD8xuSLPR-7">
          <mxGeometry width="50" height="50" relative="1" as="geometry">
            <mxPoint x="620" y="260" as="sourcePoint" />
            <mxPoint x="530" y="360" as="targetPoint" />
          </mxGeometry>
        </mxCell>
        <mxCell id="3MaQ9lW96g9JMEUkwHcK-13" value="" style="shape=flexArrow;endArrow=classic;html=1;rounded=0;fillColor=default;" edge="1" parent="gYz3pa-wU1wfD8xuSLPR-7">
          <mxGeometry width="50" height="50" relative="1" as="geometry">
            <mxPoint x="560" y="370" as="sourcePoint" />
            <mxPoint x="680" y="310" as="targetPoint" />
          </mxGeometry>
        </mxCell>
        <mxCell id="3MaQ9lW96g9JMEUkwHcK-14" value="View Shippers" style="ellipse;whiteSpace=wrap;html=1;" vertex="1" parent="gYz3pa-wU1wfD8xuSLPR-7">
          <mxGeometry x="710" y="425" width="100" height="70" as="geometry" />
        </mxCell>
        <mxCell id="3MaQ9lW96g9JMEUkwHcK-15" value="View Shipments" style="ellipse;whiteSpace=wrap;html=1;" vertex="1" parent="gYz3pa-wU1wfD8xuSLPR-7">
          <mxGeometry x="647" y="509" width="100" height="70" as="geometry" />
        </mxCell>
        <mxCell id="3MaQ9lW96g9JMEUkwHcK-19" value="" style="shape=flexArrow;endArrow=classic;html=1;rounded=0;fillColor=default;" edge="1" parent="gYz3pa-wU1wfD8xuSLPR-7">
          <mxGeometry width="50" height="50" relative="1" as="geometry">
            <mxPoint x="770" y="410" as="sourcePoint" />
            <mxPoint x="860" y="130" as="targetPoint" />
          </mxGeometry>
        </mxCell>
        <mxCell id="3MaQ9lW96g9JMEUkwHcK-17" value="" style="shape=flexArrow;endArrow=classic;html=1;rounded=0;fillColor=default;" edge="1" parent="gYz3pa-wU1wfD8xuSLPR-7">
          <mxGeometry width="50" height="50" relative="1" as="geometry">
            <mxPoint x="550" y="400" as="sourcePoint" />
            <mxPoint x="700" y="440" as="targetPoint" />
          </mxGeometry>
        </mxCell>
        <mxCell id="3MaQ9lW96g9JMEUkwHcK-18" value="" style="shape=flexArrow;endArrow=classic;html=1;rounded=0;fillColor=default;" edge="1" parent="gYz3pa-wU1wfD8xuSLPR-7">
          <mxGeometry width="50" height="50" relative="1" as="geometry">
            <mxPoint x="800" y="495" as="sourcePoint" />
            <mxPoint x="890" y="620" as="targetPoint" />
          </mxGeometry>
        </mxCell>
        <mxCell id="3MaQ9lW96g9JMEUkwHcK-16" value="" style="shape=flexArrow;endArrow=classic;html=1;rounded=0;fillColor=default;" edge="1" parent="gYz3pa-wU1wfD8xuSLPR-7">
          <mxGeometry width="50" height="50" relative="1" as="geometry">
            <mxPoint x="770" y="325" as="sourcePoint" />
            <mxPoint x="920" y="610" as="targetPoint" />
          </mxGeometry>
        </mxCell>
        <mxCell id="3MaQ9lW96g9JMEUkwHcK-20" value="" style="shape=flexArrow;endArrow=classic;html=1;rounded=0;fillColor=default;" edge="1" parent="gYz3pa-wU1wfD8xuSLPR-7">
          <mxGeometry width="50" height="50" relative="1" as="geometry">
            <mxPoint x="750" y="570" as="sourcePoint" />
            <mxPoint x="870" y="640" as="targetPoint" />
          </mxGeometry>
        </mxCell>
        <mxCell id="3MaQ9lW96g9JMEUkwHcK-21" value="" style="shape=flexArrow;endArrow=classic;html=1;rounded=0;fillColor=default;" edge="1" parent="gYz3pa-wU1wfD8xuSLPR-7">
          <mxGeometry width="50" height="50" relative="1" as="geometry">
            <mxPoint x="530" y="440" as="sourcePoint" />
            <mxPoint x="640" y="520" as="targetPoint" />
          </mxGeometry>
        </mxCell>
        <mxCell id="3MaQ9lW96g9JMEUkwHcK-22" value="Update&lt;br&gt;Shipment" style="ellipse;whiteSpace=wrap;html=1;" vertex="1" parent="gYz3pa-wU1wfD8xuSLPR-7">
          <mxGeometry x="500" y="540" width="100" height="70" as="geometry" />
        </mxCell>
        <mxCell id="3MaQ9lW96g9JMEUkwHcK-23" value="View Shipment Items" style="ellipse;whiteSpace=wrap;html=1;" vertex="1" parent="gYz3pa-wU1wfD8xuSLPR-7">
          <mxGeometry x="384" y="557" width="100" height="70" as="geometry" />
        </mxCell>
        <mxCell id="3MaQ9lW96g9JMEUkwHcK-24" value="Update Shipment Item" style="ellipse;whiteSpace=wrap;html=1;" vertex="1" parent="gYz3pa-wU1wfD8xuSLPR-7">
          <mxGeometry x="298" y="509" width="100" height="70" as="geometry" />
        </mxCell>
        <mxCell id="3MaQ9lW96g9JMEUkwHcK-25" value="View Receiving Clerks" style="ellipse;whiteSpace=wrap;html=1;" vertex="1" parent="gYz3pa-wU1wfD8xuSLPR-7">
          <mxGeometry x="230" y="450" width="100" height="70" as="geometry" />
        </mxCell>
        <mxCell id="3MaQ9lW96g9JMEUkwHcK-26" value="" style="shape=flexArrow;endArrow=classic;html=1;rounded=0;fillColor=default;" edge="1" parent="gYz3pa-wU1wfD8xuSLPR-7">
          <mxGeometry width="50" height="50" relative="1" as="geometry">
            <mxPoint x="410" y="420" as="sourcePoint" />
            <mxPoint x="340" y="460" as="targetPoint" />
          </mxGeometry>
        </mxCell>
        <mxCell id="3MaQ9lW96g9JMEUkwHcK-27" value="" style="shape=flexArrow;endArrow=classic;html=1;rounded=0;fillColor=default;" edge="1" parent="gYz3pa-wU1wfD8xuSLPR-7">
          <mxGeometry width="50" height="50" relative="1" as="geometry">
            <mxPoint x="270" y="530" as="sourcePoint" />
            <mxPoint x="220" y="750" as="targetPoint" />
          </mxGeometry>
        </mxCell>
        <mxCell id="3MaQ9lW96g9JMEUkwHcK-28" value="" style="shape=flexArrow;endArrow=classic;html=1;rounded=0;fillColor=default;" edge="1" parent="gYz3pa-wU1wfD8xuSLPR-7">
          <mxGeometry width="50" height="50" relative="1" as="geometry">
            <mxPoint x="160" y="280" as="sourcePoint" />
            <mxPoint x="90" y="140" as="targetPoint" />
          </mxGeometry>
        </mxCell>
        <mxCell id="3MaQ9lW96g9JMEUkwHcK-29" value="" style="shape=flexArrow;endArrow=classic;html=1;rounded=0;fillColor=default;" edge="1" parent="gYz3pa-wU1wfD8xuSLPR-7">
          <mxGeometry width="50" height="50" relative="1" as="geometry">
            <mxPoint x="390" y="510" as="sourcePoint" />
            <mxPoint x="430" y="440" as="targetPoint" />
          </mxGeometry>
        </mxCell>
        <mxCell id="3MaQ9lW96g9JMEUkwHcK-30" value="" style="shape=flexArrow;endArrow=classic;html=1;rounded=0;fillColor=default;" edge="1" parent="gYz3pa-wU1wfD8xuSLPR-7">
          <mxGeometry width="50" height="50" relative="1" as="geometry">
            <mxPoint x="468" y="453" as="sourcePoint" />
            <mxPoint x="450" y="540" as="targetPoint" />
          </mxGeometry>
        </mxCell>
        <mxCell id="3MaQ9lW96g9JMEUkwHcK-31" value="" style="shape=flexArrow;endArrow=classic;html=1;rounded=0;fillColor=default;" edge="1" parent="gYz3pa-wU1wfD8xuSLPR-7">
          <mxGeometry width="50" height="50" relative="1" as="geometry">
            <mxPoint x="400" y="640" as="sourcePoint" />
            <mxPoint x="300" y="760" as="targetPoint" />
          </mxGeometry>
        </mxCell>
        <mxCell id="3MaQ9lW96g9JMEUkwHcK-32" value="" style="shape=flexArrow;endArrow=classic;html=1;rounded=0;fillColor=default;" edge="1" parent="gYz3pa-wU1wfD8xuSLPR-7">
          <mxGeometry width="50" height="50" relative="1" as="geometry">
            <mxPoint x="320" y="780" as="sourcePoint" />
            <mxPoint x="517" y="609" as="targetPoint" />
          </mxGeometry>
        </mxCell>
        <mxCell id="3MaQ9lW96g9JMEUkwHcK-33" value="" style="shape=flexArrow;endArrow=classic;html=1;rounded=0;fillColor=default;" edge="1" parent="gYz3pa-wU1wfD8xuSLPR-7">
          <mxGeometry width="50" height="50" relative="1" as="geometry">
            <mxPoint x="650" y="580" as="sourcePoint" />
            <mxPoint x="330" y="810" as="targetPoint" />
          </mxGeometry>
        </mxCell>
        <mxCell id="3MaQ9lW96g9JMEUkwHcK-34" value="" style="shape=flexArrow;endArrow=classic;html=1;rounded=0;fillColor=default;" edge="1" parent="gYz3pa-wU1wfD8xuSLPR-7">
          <mxGeometry width="50" height="50" relative="1" as="geometry">
            <mxPoint x="540" y="530" as="sourcePoint" />
            <mxPoint x="500" y="450" as="targetPoint" />
          </mxGeometry>
        </mxCell>
      </root>
    </mxGraphModel>
  </diagram>
</mxfile>
